<?xml version="1.0" encoding="utf-8" ?>
<svg xmlns="http://www.w3.org/2000/svg" xmlns:xlink="http://www.w3.org/1999/xlink" width="144" height="142">
	<defs>
		<clipPath id="clip_0">
			<rect x="-990" y="-1228" width="1440" height="2051" clip-rule="evenodd"/>
		</clipPath>
	</defs>
	<g clip-path="url(#clip_0)">
		<path fill="rgb(33,213,187)" stroke="none" transform="translate(58.3621 3.14258)" d="M21.4256 26.5514L41.8533 6.40691L42.1955 6.06892L39.2414 3.15612C34.9743 -1.05195 27.9921 -1.05195 23.7253 3.15557L0 26.5514L21.4256 26.5514Z"/>
	</g>
	<defs>
		<clipPath id="clip_1">
			<rect x="-990" y="-1228" width="1440" height="2051" clip-rule="evenodd"/>
		</clipPath>
	</defs>
	<g clip-path="url(#clip_1)">
		<path fill="rgb(248,227,158)" stroke="none" transform="translate(79.7877 9.21149)" d="M20.4276 0.337996L0 20.4825L41.5411 20.4825L20.7696 0L20.4276 0.337996Z"/>
	</g>
	<defs>
		<clipPath id="clip_2">
			<rect x="-990" y="-1228" width="1440" height="2051" clip-rule="evenodd"/>
		</clipPath>
	</defs>
	<g clip-path="url(#clip_2)">
		<path fill="rgb(248,227,158)" stroke="none" transform="translate(3.18964 29.6943)" d="M0 17.7002L0 64.9046L137.62 64.9046L137.62 17.7002L137.62 11.5427C137.62 5.19495 132.352 0 125.913 0L118.139 0L76.5981 0L55.1725 0L11.7056 0C5.26756 0 0.000280488 5.19468 0.000280488 11.5427C0 11.5425 0 17.7002 0 17.7002Z"/>
	</g>
	<defs>
		<clipPath id="clip_3">
			<rect x="-990" y="-1228" width="1440" height="2051" clip-rule="evenodd"/>
		</clipPath>
	</defs>
	<g clip-path="url(#clip_3)">
		<path fill="rgb(248,252,136)" stroke="none" transform="translate(3.18964 94.5988)" d="M137.62 0L0 0L0 6.15749C0 12.5053 5.26756 17.7002 11.7053 17.7002L19.4804 17.7002L61.0212 17.7002L82.4472 17.7002L125.913 17.7002C132.352 17.7002 137.62 12.5053 137.62 6.15749L137.62 0Z"/>
	</g>
	<defs>
		<clipPath id="clip_4">
			<rect x="-990" y="-1228" width="1440" height="2051" clip-rule="evenodd"/>
		</clipPath>
	</defs>
	<g clip-path="url(#clip_4)">
		<path fill="rgb(248,227,158)" stroke="none" transform="translate(22.6703 112.299)" d="M41.5408 0L0 0L20.7701 20.4822L23.7248 23.3955C27.9921 27.6031 34.9743 27.6031 39.2414 23.3955L62.9667 1.57224e-14L41.5408 1.57224e-14L41.5408 0Z"/>
	</g>
	<defs>
		<clipPath id="clip_5">
			<rect x="-990" y="-1228" width="1440" height="2051" clip-rule="evenodd"/>
		</clipPath>
	</defs>
	<g clip-path="url(#clip_5)">
		<path fill="rgb(33,213,187)" stroke="none" transform="translate(43.4404 112.299)" d="M20.7707 0L0 20.4822L2.95466 23.3955C7.222 27.6031 14.2042 27.6031 18.4712 23.3955L42.1966 1.57224e-14L20.7707 1.57224e-14L20.7707 0Z"/>
	</g>
	<defs>
		<clipPath id="clip_6">
			<rect x="-990" y="-1228" width="1440" height="2051" clip-rule="evenodd"/>
		</clipPath>
	</defs>
	<g clip-path="url(#clip_6)">
		<path fill="rgb(248,252,136)" stroke="none" transform="translate(3.18988 29.694)" d="M118.139 0L76.5979 0L55.1722 0L11.7053 0C5.26728 0 0 5.19468 0 11.5427L0 17.7002L137.619 17.7002L137.619 11.5427C137.619 5.19495 132.352 0 125.913 0L118.139 0Z"/>
	</g>
	<defs>
		<clipPath id="clip_7">
			<rect x="-990" y="-1228" width="1440" height="2051" clip-rule="evenodd"/>
		</clipPath>
	</defs>
	<g clip-path="url(#clip_7)">
		<path fill="rgb(0,0,2)" stroke="none" transform="translate(0.00280762 0)" d="M122.703 26.6242L129.256 26.6242C137.382 26.6242 143.994 33.1434 143.994 41.1561L143.994 100.837C143.994 108.85 137.383 115.37 129.257 115.37L86.9147 115.37L64.0032 137.962C61.2734 140.654 57.688 142 54.1024 142C50.517 142 46.9313 140.654 44.2018 137.962L41.2462 135.048C41.2436 135.046 41.2411 135.044 41.2386 135.041C41.236 135.039 41.2341 135.036 41.2315 135.034L21.2909 115.37L14.7372 115.37C6.61078 115.37 0 108.851 0 100.837L0 41.1561C0 33.1431 6.61078 26.6239 14.7372 26.6239L57.0797 26.6239L79.9906 4.03119C82.6265 1.43165 86.1427 0 89.8912 0C93.6394 0 97.1553 1.43165 99.7917 4.03147L122.703 26.6242ZM84.2335 8.21464C85.736 6.73252 87.7452 5.9163 89.8912 5.9163C92.0365 5.9163 94.0466 6.73252 95.5491 8.21492L96.3906 9.04473L78.5635 26.6244L65.5644 26.6244L84.2335 8.21464ZM87.0483 26.6242L114.217 26.6242L100.633 13.2279L87.0483 26.6242ZM129.256 32.5405L14.7372 32.5405C9.91969 32.5405 5.99962 36.4053 5.99991 41.1562L5.99991 91.7051L137.994 91.7051L137.994 50.2885L21.3359 50.2885C19.6788 50.2885 18.3361 48.9642 18.3361 47.3304C18.3361 45.6965 19.6788 44.3722 21.3359 44.3722L137.994 44.3722L137.994 41.1562C137.994 36.4053 134.074 32.5405 129.256 32.5405ZM22.5349 109.454L129.256 109.454C134.074 109.454 137.994 105.588 137.994 100.837L137.994 97.6219L5.99991 97.6219L5.99991 100.837C5.99991 105.589 9.91941 109.454 14.7372 109.454L22.5349 109.454ZM59.7606 133.779C56.6407 136.856 51.5638 136.856 48.4436 133.779L47.6021 132.949L50.8312 129.765C52.0026 128.61 52.0026 126.737 50.8312 125.582C49.66 124.426 47.7605 124.426 46.5885 125.582L43.3595 128.766L29.7757 115.37L78.4285 115.37L59.7606 133.779Z" fill-rule="evenodd"/>
	</g>
	<defs>
		<clipPath id="clip_8">
			<rect x="-990" y="-1228" width="1440" height="2051" clip-rule="evenodd"/>
		</clipPath>
	</defs>
	<g clip-path="url(#clip_8)">
		<path fill="rgb(0,0,2)" stroke="none" transform="translate(110.026 58.9186)" d="M1.56206 4.58865L6.14953 4.58865L6.14953 22.3864C6.14953 23.4353 7.44581 23.9594 8.74238 23.9594C10.0381 23.9594 11.3352 23.4353 11.3352 22.3864L11.3352 4.58865L15.9218 4.58865C16.9189 4.58865 17.4842 3.50701 17.4842 2.26118C17.4842 1.17954 17.0187 0 15.9218 0L1.56234 0C0.465469 0 1.04946e-07 1.17982 1.04946e-07 2.26118C-0.000281145 3.50701 0.56475 4.58865 1.56206 4.58865Z"/>
	</g>
	<defs>
		<clipPath id="clip_9">
			<rect x="-990" y="-1228" width="1440" height="2051" clip-rule="evenodd"/>
		</clipPath>
	</defs>
	<g clip-path="url(#clip_9)">
		<path fill="rgb(0,0,2)" stroke="none" transform="translate(70.2911 58.9192)" d="M2.59313 23.9592C3.88941 23.9592 5.18597 23.435 5.18597 22.3861L5.18597 16.4537L6.58153 14.6837L12.2653 23.2059C12.6976 23.894 13.3622 24.1564 14.0605 24.1564C15.5557 24.1564 17.1847 22.8781 17.1847 21.6001C17.1847 21.3044 17.0851 21.0096 16.9192 20.7478L10.0381 10.3568L15.4896 3.60464C15.7553 3.24409 15.8217 2.88382 15.8217 2.62145C15.8217 1.34318 14.0937 0 12.764 0C12.2321 0 11.7669 0.196082 11.401 0.721094L5.18569 9.40695L5.18569 1.54009C5.18569 0.458449 3.88941 0 2.59284 0C1.29628 0 0 0.458449 0 1.54009L0 22.3861C0.0005625 23.435 1.29684 23.9592 2.59313 23.9592Z"/>
	</g>
	<defs>
		<clipPath id="clip_10">
			<rect x="-990" y="-1228" width="1440" height="2051" clip-rule="evenodd"/>
		</clipPath>
	</defs>
	<g clip-path="url(#clip_10)">
		<path fill="rgb(0,0,2)" stroke="none" transform="translate(91.3722 58.9189)" d="M2.25984 23.9594L14.0934 23.9594C15.1895 23.9594 15.6555 22.8124 15.6555 21.764C15.6555 20.5506 15.0899 19.5023 14.0934 19.5023L5.18541 19.5023L5.18541 13.9304L10.1711 13.9304C11.2683 13.9304 11.7335 12.8815 11.7335 11.9959C11.7335 10.9476 11.1682 9.99658 10.1711 9.99658L5.18541 9.99658L5.18541 4.45691L14.0934 4.45691C15.0899 4.45691 15.6555 3.40855 15.6555 2.19545C15.6555 1.14709 15.1898 0 14.0934 0L2.25984 0C1.13006 0 5.24742e-08 0.52418 5.24742e-08 1.57309L5.24742e-08 22.3861C-0.000281198 23.4353 1.13006 23.9594 2.25984 23.9594Z"/>
	</g>
	<defs>
		<clipPath id="clip_11">
			<rect x="-990" y="-1228" width="1440" height="2051" clip-rule="evenodd"/>
		</clipPath>
	</defs>
	<g clip-path="url(#clip_11)">
		<path fill="rgb(0,0,2)" stroke="none" transform="translate(49.0787 58.9186)" d="M7.97681 24.1564C12.7297 24.1564 16.3198 21.6653 16.3198 17.3054C16.3198 15.3396 15.4884 14.88 13.6941 14.88C12.3643 14.88 11.234 15.2081 11.1347 16.4207C11.0351 17.699 10.8692 19.6989 8.20969 19.6989C6.28172 19.6989 5.18512 18.65 5.18512 16.4207L5.18512 7.73539C5.18512 5.50611 6.28144 4.45719 8.17622 4.45719C11.0022 4.45719 11.1015 6.55557 11.1344 7.40757C11.2008 8.58712 12.3311 8.94822 13.7272 8.94822C15.4884 8.94822 16.3201 8.48921 16.3201 6.52285C16.3201 2.3602 12.7302 0 7.97709 0C3.6225 0 0 2.09727 0 7.73567L0 16.421C-0.0005625 22.0591 3.62222 24.1564 7.97681 24.1564Z"/>
	</g>
	<defs>
		<clipPath id="clip_12">
			<rect x="-990" y="-1228" width="1440" height="2051" clip-rule="evenodd"/>
		</clipPath>
	</defs>
	<g clip-path="url(#clip_12)">
		<path fill="rgb(0,0,2)" stroke="none" transform="translate(16.4891 58.9186)" d="M1.56234 4.58865L6.14981 4.58865L6.14981 22.3864C6.14981 23.4353 7.44525 23.9594 8.74181 23.9594C10.0384 23.9594 11.3347 23.4353 11.3347 22.3864L11.3347 4.58865L15.9221 4.58865C16.9186 4.58865 17.4839 3.50701 17.4839 2.26118C17.4839 1.17954 17.019 0 15.9221 0L1.56234 0C0.465469 0 0 1.17982 0 2.26118C-1.9984e-15 3.50701 0.565313 4.58865 1.56234 4.58865Z"/>
	</g>
	<defs>
		<clipPath id="clip_13">
			<rect x="-990" y="-1228" width="1440" height="2051" clip-rule="evenodd"/>
		</clipPath>
	</defs>
	<g clip-path="url(#clip_13)">
		<path fill="rgb(0,0,2)" stroke="none" transform="translate(38.3015 58.9192)" d="M2.59284 23.9592C3.88912 23.9592 5.18512 23.435 5.18512 22.3861L5.18512 1.54009C5.18512 0.458449 3.88941 0 2.59284 0C1.296 0 0 0.458449 0 1.54009L0 22.3861C0 23.435 1.296 23.9592 2.59284 23.9592Z"/>
	</g>
	<defs>
		<clipPath id="clip_14">
			<rect x="-990" y="-1228" width="1440" height="2051" clip-rule="evenodd"/>
		</clipPath>
	</defs>
	<g clip-path="url(#clip_14)">
		<path fill="rgb(0,0,2)" stroke="none" transform="translate(9.43256 44.3728)" d="M2.99981 5.9163L3.21947 5.9163C4.87631 5.9163 6.21928 4.59198 6.21928 2.95815C6.21928 1.32432 4.87631 0 3.21947 0L2.99981 0C1.34297 0 0 1.32432 0 2.95815C0 4.5917 1.34269 5.9163 2.99981 5.9163Z"/>
	</g>
	<defs>
		<clipPath id="clip_15">
			<rect x="-990" y="-1228" width="1440" height="2051" clip-rule="evenodd"/>
		</clipPath>
	</defs>
	<g clip-path="url(#clip_15)">
		<path fill="rgb(0,0,2)" stroke="none" transform="translate(51.8553 118.505)" d="M3.00002 6.07015C3.76755 6.07015 4.53565 5.78144 5.12121 5.20373L5.27702 5.05008C6.44843 3.89495 6.44843 2.02177 5.27702 0.866352C4.1059 -0.288784 2.20634 -0.288784 1.03437 0.866352L0.878555 1.02C-0.292852 2.17514 -0.292852 4.04832 0.878555 5.20373C1.4644 5.78144 2.23249 6.07015 3.00002 6.07015Z"/>
	</g>
</svg>
