<?xml version="1.0" encoding="utf-8" ?>
<svg xmlns="http://www.w3.org/2000/svg" xmlns:xlink="http://www.w3.org/1999/xlink" width="177" height="142">
	<defs>
		<clipPath id="clip_0">
			<rect x="-491" y="-1019" width="1440" height="2051" clip-rule="evenodd"/>
		</clipPath>
	</defs>
	<g clip-path="url(#clip_0)">
		<path fill="rgb(33,213,187)" stroke="none" transform="translate(3 77.9729)" d="M61.7039 30.3945C61.7039 13.6079 47.8908 0 30.852 0C26.1971 0 21.7832 1.01551 17.8259 2.83412C7.29683 7.67191 0 18.1941 0 30.3945C0 47.1807 13.8128 60.789 30.852 60.789C43.2363 60.789 53.9162 53.6 58.8268 43.227C60.6728 39.3288 61.7039 34.9803 61.7039 30.3945Z"/>
	</g>
	<defs>
		<clipPath id="clip_1">
			<rect x="-491" y="-1019" width="1440" height="2051" clip-rule="evenodd"/>
		</clipPath>
	</defs>
	<g clip-path="url(#clip_1)">
		<path fill="rgb(241,219,200)" stroke="none" transform="translate(20.8256 33.394)" d="M13.0264 44.5789C30.0652 44.5789 43.8783 58.1869 43.8783 74.9734C43.8783 79.5589 42.8472 83.9074 41.0012 87.806L126.388 87.806L126.388 71.7516C126.388 67.3366 130.054 63.7241 134.535 63.7241L150.832 63.7241L150.832 0L0 0L0 12.56L0 47.413C3.95762 45.5944 8.3715 44.5789 13.0264 44.5789Z"/>
	</g>
	<defs>
		<clipPath id="clip_2">
			<rect x="-491" y="-1019" width="1440" height="2051" clip-rule="evenodd"/>
		</clipPath>
	</defs>
	<g clip-path="url(#clip_2)">
		<path fill="rgb(199,143,112)" stroke="none" transform="translate(147.214 97.1184)" d="M8.14769 0C3.66626 0 0 3.61222 0 8.02752L0 24.0819L24.4444 0L8.14769 0L8.14769 0Z"/>
	</g>
	<defs>
		<clipPath id="clip_3">
			<rect x="-491" y="-1019" width="1440" height="2051" clip-rule="evenodd"/>
		</clipPath>
	</defs>
	<g clip-path="url(#clip_3)">
		<path fill="rgb(233,188,130)" stroke="none" transform="translate(147.213 97.1184)" d="M24.4445 0L0 24.0822L17.5884 24.0822C21.3593 24.0822 24.4445 21.0431 24.4445 17.3282L24.4445 0L24.4445 0Z"/>
	</g>
	<defs>
		<clipPath id="clip_4">
			<rect x="-491" y="-1019" width="1440" height="2051" clip-rule="evenodd"/>
		</clipPath>
	</defs>
	<g clip-path="url(#clip_4)">
		<path fill="rgb(194,43,101)" stroke="none" transform="translate(20.8259 13.131)" d="M0 20.263L150.832 20.263L150.832 6.75433C150.832 3.03945 147.746 0 143.976 0L137.12 0L123.408 0L109.696 0L95.9838 0L82.2718 0L68.5598 0L54.8479 0L41.1359 0L27.4239 0L13.712 0L6.85564 0C3.08485 0 2.43573e-15 3.03945 2.43573e-15 6.75433L0 20.263Z"/>
	</g>
	<defs>
		<clipPath id="clip_5">
			<rect x="-491" y="-1019" width="1440" height="2051" clip-rule="evenodd"/>
		</clipPath>
	</defs>
	<g clip-path="url(#clip_5)">
		<path fill="rgb(248,252,136)" stroke="none" transform="translate(61.9615 51.9684)" d="M0 0L18.3867 0L68.5603 0L68.5603 16.8858L68.5603 51.8854L18.3867 51.8854L18.3867 16.8858L0 16.8858L0 0Z"/>
	</g>
	<defs>
		<clipPath id="clip_6">
			<rect x="-491" y="-1019" width="1440" height="2051" clip-rule="evenodd"/>
		</clipPath>
	</defs>
	<g clip-path="url(#clip_6)">
		<path fill="rgb(0,0,0)" stroke="none" transform="translate(42 48.2222)" d="M3.54081 0L3.45918 0C1.54867 0 0 1.54242 0 3.44445C0 5.34681 1.54867 6.88889 3.45918 6.88889L3.54081 6.88889C5.45132 6.88889 6.99999 5.34681 6.99999 3.44445C6.99999 1.54242 5.45132 0 3.54081 0Z"/>
	</g>
	<defs>
		<clipPath id="clip_7">
			<rect x="-491" y="-1019" width="1440" height="2051" clip-rule="evenodd"/>
		</clipPath>
	</defs>
	<g clip-path="url(#clip_7)">
		<path fill="rgb(0,0,0)" stroke="none" transform="translate(144 48.2222)" d="M3.45923 6.88889L3.54086 6.88889C5.4514 6.88889 7.00009 5.34681 7.00009 3.44445C7.00009 1.54242 5.4514 0 3.54086 0L3.45923 0C1.5487 0 0 1.54242 0 3.44445C0 5.34681 1.5487 6.88889 3.45923 6.88889Z"/>
	</g>
	<defs>
		<clipPath id="clip_8">
			<rect x="-491" y="-1019" width="1440" height="2051" clip-rule="evenodd"/>
		</clipPath>
	</defs>
	<g clip-path="url(#clip_8)">
		<path fill="rgb(0,0,0)" stroke="none" d="M176 19.5697L176 114.046C176 119.628 171.374 124.168 165.688 124.168L64.5235 124.168C58.6749 134.616 47.3539 141.714 34.3749 141.714C15.4206 141.714 0 126.578 0 107.973C0 95.2333 7.23111 84.1209 17.8753 78.3801L17.8753 19.5694C17.8753 13.9879 22.5011 9.44694 28.1875 9.44694L31.6253 9.44694L31.6253 3.37415C31.6253 1.51094 33.1643 0 35.0628 0C36.9613 0 38.5003 1.51094 38.5003 3.37415L38.5003 9.44694L45.3753 9.44694L45.3753 3.37415C45.3753 1.51094 46.9142 0 48.8128 0C50.7113 0 52.2503 1.51094 52.2503 3.37415L52.2503 9.44694L59.1252 9.44694L59.1252 3.37415C59.1252 1.51094 60.6642 0 62.5627 0C64.4613 0 66.0002 1.51094 66.0002 3.37415L66.0002 9.44694L72.8752 9.44694L72.8752 3.37415C72.8752 1.51094 74.4142 0 76.3127 0C78.2112 0 79.7502 1.51094 79.7502 3.37415L79.7502 9.44694L86.6252 9.44694L86.6252 3.37415C86.6252 1.51094 88.1642 0 90.0627 0C91.9612 0 93.5002 1.51094 93.5002 3.37415L93.5002 9.44694L100.375 9.44694L100.375 3.37415C100.375 1.51094 101.914 0 103.813 0C105.711 0 107.25 1.51094 107.25 3.37415L107.25 9.44694L114.125 9.44694L114.125 3.37415C114.125 1.51094 115.664 0 117.563 0C119.461 0 121 1.51094 121 3.37415L121 9.44694L127.875 9.44694L127.875 3.37415C127.875 1.51094 129.414 0 131.313 0C133.211 0 134.75 1.51094 134.75 3.37415L134.75 9.44694L141.625 9.44694L141.625 3.37415C141.625 1.51094 143.164 0 145.063 0C146.961 0 148.5 1.51094 148.5 3.37415L148.5 9.44694L155.375 9.44694L155.375 3.37415C155.375 1.51094 156.914 0 158.813 0C160.711 0 162.25 1.51094 162.25 3.37415L162.25 9.44728L165.688 9.44728C171.374 9.44728 176 13.9882 176 19.5697ZM31.6253 16.1956L28.1875 16.1956C26.292 16.1956 24.7503 17.7092 24.7503 19.5697L24.7503 29.6922L169.125 29.6922L169.125 19.5697C169.125 17.7092 167.583 16.1956 165.688 16.1956L162.25 16.1956L162.25 17.8614C162.25 19.7249 160.711 21.2355 158.813 21.2355C156.914 21.2355 155.375 19.7249 155.375 17.8614L155.375 16.1956L148.5 16.1956L148.5 17.8614C148.5 19.7249 146.961 21.2355 145.063 21.2355C143.164 21.2355 141.625 19.7249 141.625 17.8614L141.625 16.1956L134.75 16.1956L134.75 17.8614C134.75 19.7249 133.211 21.2355 131.313 21.2355C129.414 21.2355 127.875 19.7249 127.875 17.8614L127.875 16.1956L121 16.1956L121 17.8614C121 19.7249 119.461 21.2355 117.563 21.2355C115.664 21.2355 114.125 19.7249 114.125 17.8614L114.125 16.1956L107.25 16.1956L107.25 17.8614C107.25 19.7249 105.711 21.2355 103.813 21.2355C101.914 21.2355 100.375 19.7249 100.375 17.8614L100.375 16.1956L93.5002 16.1956L93.5002 17.8614C93.5002 19.7249 91.9612 21.2355 90.0627 21.2355C88.1642 21.2355 86.6252 19.7249 86.6252 17.8614L86.6252 16.1956L79.7502 16.1956L79.7502 17.8614C79.7502 19.7249 78.2113 21.2355 76.3127 21.2355C74.4142 21.2355 72.8752 19.7249 72.8752 17.8614L72.8752 16.1956L66.0002 16.1956L66.0002 17.8614C66.0002 19.7249 64.4613 21.2355 62.5627 21.2355C60.6642 21.2355 59.1253 19.7249 59.1253 17.8614L59.1253 16.1956L52.2503 16.1956L52.2503 17.8614C52.2503 19.7249 50.7113 21.2355 48.8128 21.2355C46.9142 21.2355 45.3753 19.7249 45.3753 17.8614L45.3753 16.1956L38.5003 16.1956L38.5003 17.8614C38.5003 19.7249 36.9613 21.2355 35.0628 21.2355C33.1643 21.2355 31.6253 19.7249 31.6253 17.8614L31.6253 16.1956ZM24.7503 75.5793C27.8059 74.703 31.0351 74.2313 34.3749 74.2313C53.3293 74.2313 68.7499 89.3677 68.7499 107.973C68.7499 111.251 68.2693 114.421 67.3766 117.42L144.613 117.42L144.613 104.754C144.613 98.4705 149.82 93.3593 156.221 93.3593L169.125 93.3593L169.125 54.998L158.457 54.998C156.558 54.998 155.019 53.4874 155.019 51.6238C155.019 49.7606 156.558 48.2497 158.457 48.2497L169.125 48.2497L169.125 36.4401L24.7503 36.4401L24.7503 48.2497L35.4182 48.2497C37.3168 48.2497 38.8557 49.7606 38.8557 51.6238C38.8557 53.4874 37.3168 54.998 35.4182 54.998L24.7503 54.998L24.7503 75.5793ZM34.3749 134.966C19.2115 134.966 6.87499 122.857 6.87499 107.973C6.87499 93.0887 19.2115 80.9796 34.3749 80.9796C49.5384 80.9796 61.8749 93.0887 61.8749 107.973C61.8749 122.857 49.5384 134.966 34.3749 134.966ZM164.263 100.108L151.488 112.648L151.488 104.754C151.488 102.192 153.611 100.108 156.221 100.108L164.263 100.108ZM156.35 117.42L165.688 117.42C167.583 117.42 169.125 115.906 169.125 114.046L169.125 104.88L156.35 117.42Z" fill-rule="evenodd"/>
	</g>
	<defs>
		<clipPath id="clip_9">
			<rect x="-491" y="-1019" width="1440" height="2051" clip-rule="evenodd"/>
		</clipPath>
	</defs>
	<g clip-path="url(#clip_9)">
		<path fill="rgb(0,0,0)" stroke="none" transform="translate(59 48.2222)" d="M0 3.35761C0 1.50354 1.52625 0 3.40909 0L71.5909 0C73.4738 0 75 1.50354 75 3.35761L75 53.7218C75 55.5758 73.4738 57.0794 71.5909 57.0794L20.4545 57.0794C18.5717 57.0794 17.0455 55.5758 17.0455 53.7218L17.0455 23.5033L3.40909 23.5033C1.52625 23.5033 0 22.0001 0 20.1457L0 3.35761ZM17.0454 6.71522L6.81819 6.71522L6.81819 16.788L17.0454 16.788L17.0454 6.71522ZM34.0909 16.788L23.8636 16.788L23.8636 6.71522L34.0909 6.71522L34.0909 16.788ZM40.9091 16.788L51.1364 16.788L51.1364 6.71522L40.9091 6.71522L40.9091 16.788ZM68.1818 16.788L57.9546 16.788L57.9546 6.71522L68.1818 6.71522L68.1818 16.788ZM34.0909 33.5761L23.8636 33.5761L23.8636 23.5033L34.0909 23.5033L34.0909 33.5761ZM40.9091 33.5761L51.1364 33.5761L51.1364 23.5033L40.9091 23.5033L40.9091 33.5761ZM68.1818 33.5761L57.9546 33.5761L57.9546 23.5033L68.1818 23.5033L68.1818 33.5761ZM34.0909 40.2913L23.8636 40.2913L23.8636 50.3641L34.0909 50.3641L34.0909 40.2913ZM40.9091 40.2913L51.1364 40.2913L51.1364 50.3641L40.9091 50.3641L40.9091 40.2913ZM57.9546 50.3641L68.1818 50.3641L68.1818 40.2913L57.9546 40.2913L57.9546 50.3641Z" fill-rule="evenodd"/>
	</g>
	<defs>
		<clipPath id="clip_10">
			<rect x="-491" y="-1019" width="1440" height="2051" clip-rule="evenodd"/>
		</clipPath>
	</defs>
	<g clip-path="url(#clip_10)">
		<path fill="rgb(0,0,0)" stroke="none" transform="matrix(0.788011 0.615662 -0.615662 0.788011 44.7125 95.4261)" d="M0 0L6.99986 0L6.99986 28.5397L0 28.5397L0 0Z"/>
	</g>
	<defs>
		<clipPath id="clip_11">
			<rect x="-491" y="-1019" width="1440" height="2051" clip-rule="evenodd"/>
		</clipPath>
	</defs>
	<g clip-path="url(#clip_11)">
		<path fill="rgb(0,0,0)" stroke="none" transform="matrix(0.681998 -0.731354 0.731354 0.681998 19.0996 110.38)" d="M0 0L6.99991 0L6.99991 16.8884L0 16.8884L0 0Z"/>
	</g>
</svg>
